<mxfile host="65bd71144e">
    <diagram id="NYDb1cM_CDP_YZvtP5B9" name="Page-1">
        <mxGraphModel dx="968" dy="806" grid="1" gridSize="10" guides="1" tooltips="1" connect="1" arrows="1" fold="1" page="1" pageScale="1" pageWidth="827" pageHeight="1169" math="0" shadow="0">
            <root>
                <mxCell id="0"/>
                <mxCell id="1" parent="0"/>
                <mxCell id="2" value="" style="rounded=0;whiteSpace=wrap;html=1;fillColor=#000000;" vertex="1" parent="1">
                    <mxGeometry x="1" y="300" width="1459" height="80" as="geometry"/>
                </mxCell>
                <mxCell id="12" value="" style="group;rotation=15;" vertex="1" connectable="0" parent="1">
                    <mxGeometry x="1160" y="230" width="70" height="160" as="geometry"/>
                </mxCell>
                <mxCell id="3" value="" style="rounded=0;whiteSpace=wrap;html=1;rotation=15;" vertex="1" parent="12">
                    <mxGeometry x="16" y="2" width="70" height="40" as="geometry"/>
                </mxCell>
                <mxCell id="4" value="" style="rounded=0;whiteSpace=wrap;html=1;rotation=15;" vertex="1" parent="12">
                    <mxGeometry y="60" width="70" height="40" as="geometry"/>
                </mxCell>
                <mxCell id="5" value="" style="rounded=0;whiteSpace=wrap;html=1;rotation=15;" vertex="1" parent="12">
                    <mxGeometry x="-16" y="118" width="70" height="40" as="geometry"/>
                </mxCell>
                <mxCell id="6" value="" style="ellipse;whiteSpace=wrap;html=1;aspect=fixed;rotation=15;" vertex="1" parent="12">
                    <mxGeometry x="55" y="16" width="20" height="20" as="geometry"/>
                </mxCell>
                <mxCell id="7" value="" style="ellipse;whiteSpace=wrap;html=1;aspect=fixed;rotation=15;" vertex="1" parent="12">
                    <mxGeometry x="26" y="8" width="20" height="20" as="geometry"/>
                </mxCell>
                <mxCell id="8" value="" style="ellipse;whiteSpace=wrap;html=1;aspect=fixed;rotation=15;" vertex="1" parent="12">
                    <mxGeometry x="11" y="66" width="20" height="20" as="geometry"/>
                </mxCell>
                <mxCell id="9" value="" style="ellipse;whiteSpace=wrap;html=1;aspect=fixed;rotation=15;" vertex="1" parent="12">
                    <mxGeometry x="39" y="74" width="20" height="20" as="geometry"/>
                </mxCell>
                <mxCell id="10" value="" style="ellipse;whiteSpace=wrap;html=1;aspect=fixed;rotation=15;" vertex="1" parent="12">
                    <mxGeometry x="-5" y="124" width="20" height="20" as="geometry"/>
                </mxCell>
                <mxCell id="11" value="" style="ellipse;whiteSpace=wrap;html=1;aspect=fixed;rotation=15;" vertex="1" parent="12">
                    <mxGeometry x="24" y="132" width="20" height="20" as="geometry"/>
                </mxCell>
                <mxCell id="13" value="" style="group;rotation=15;" vertex="1" connectable="0" parent="1">
                    <mxGeometry x="160" y="290" width="70" height="160" as="geometry"/>
                </mxCell>
                <mxCell id="14" value="" style="rounded=0;whiteSpace=wrap;html=1;rotation=15;" vertex="1" parent="13">
                    <mxGeometry x="16" y="2" width="70" height="40" as="geometry"/>
                </mxCell>
                <mxCell id="15" value="" style="rounded=0;whiteSpace=wrap;html=1;rotation=15;" vertex="1" parent="13">
                    <mxGeometry y="60" width="70" height="40" as="geometry"/>
                </mxCell>
                <mxCell id="16" value="" style="rounded=0;whiteSpace=wrap;html=1;rotation=15;" vertex="1" parent="13">
                    <mxGeometry x="-16" y="118" width="70" height="40" as="geometry"/>
                </mxCell>
                <mxCell id="17" value="" style="ellipse;whiteSpace=wrap;html=1;aspect=fixed;rotation=15;" vertex="1" parent="13">
                    <mxGeometry x="55" y="16" width="20" height="20" as="geometry"/>
                </mxCell>
                <mxCell id="18" value="" style="ellipse;whiteSpace=wrap;html=1;aspect=fixed;rotation=15;" vertex="1" parent="13">
                    <mxGeometry x="26" y="8" width="20" height="20" as="geometry"/>
                </mxCell>
                <mxCell id="19" value="" style="ellipse;whiteSpace=wrap;html=1;aspect=fixed;rotation=15;" vertex="1" parent="13">
                    <mxGeometry x="11" y="66" width="20" height="20" as="geometry"/>
                </mxCell>
                <mxCell id="20" value="" style="ellipse;whiteSpace=wrap;html=1;aspect=fixed;rotation=15;" vertex="1" parent="13">
                    <mxGeometry x="39" y="74" width="20" height="20" as="geometry"/>
                </mxCell>
                <mxCell id="21" value="" style="ellipse;whiteSpace=wrap;html=1;aspect=fixed;rotation=15;" vertex="1" parent="13">
                    <mxGeometry x="-5" y="124" width="20" height="20" as="geometry"/>
                </mxCell>
                <mxCell id="22" value="" style="ellipse;whiteSpace=wrap;html=1;aspect=fixed;rotation=15;" vertex="1" parent="13">
                    <mxGeometry x="24" y="132" width="20" height="20" as="geometry"/>
                </mxCell>
                <mxCell id="23" value="" style="group" vertex="1" connectable="0" parent="1">
                    <mxGeometry x="350" y="330" width="70" height="160" as="geometry"/>
                </mxCell>
                <mxCell id="24" value="" style="rounded=0;whiteSpace=wrap;html=1;" vertex="1" parent="23">
                    <mxGeometry width="70" height="40" as="geometry"/>
                </mxCell>
                <mxCell id="25" value="" style="rounded=0;whiteSpace=wrap;html=1;" vertex="1" parent="23">
                    <mxGeometry y="60" width="70" height="40" as="geometry"/>
                </mxCell>
                <mxCell id="26" value="" style="rounded=0;whiteSpace=wrap;html=1;" vertex="1" parent="23">
                    <mxGeometry y="120" width="70" height="40" as="geometry"/>
                </mxCell>
                <mxCell id="27" value="" style="ellipse;whiteSpace=wrap;html=1;aspect=fixed;" vertex="1" parent="23">
                    <mxGeometry x="40" y="10" width="20" height="20" as="geometry"/>
                </mxCell>
                <mxCell id="28" value="" style="ellipse;whiteSpace=wrap;html=1;aspect=fixed;" vertex="1" parent="23">
                    <mxGeometry x="10" y="10" width="20" height="20" as="geometry"/>
                </mxCell>
                <mxCell id="29" value="" style="ellipse;whiteSpace=wrap;html=1;aspect=fixed;" vertex="1" parent="23">
                    <mxGeometry x="10" y="70" width="20" height="20" as="geometry"/>
                </mxCell>
                <mxCell id="30" value="" style="ellipse;whiteSpace=wrap;html=1;aspect=fixed;" vertex="1" parent="23">
                    <mxGeometry x="40" y="70" width="20" height="20" as="geometry"/>
                </mxCell>
                <mxCell id="31" value="" style="ellipse;whiteSpace=wrap;html=1;aspect=fixed;" vertex="1" parent="23">
                    <mxGeometry x="10" y="130" width="20" height="20" as="geometry"/>
                </mxCell>
                <mxCell id="32" value="" style="ellipse;whiteSpace=wrap;html=1;aspect=fixed;" vertex="1" parent="23">
                    <mxGeometry x="40" y="130" width="20" height="20" as="geometry"/>
                </mxCell>
                <mxCell id="33" value="" style="group;rotation=-15;" vertex="1" connectable="0" parent="1">
                    <mxGeometry x="530" y="290" width="70" height="160" as="geometry"/>
                </mxCell>
                <mxCell id="34" value="" style="rounded=0;whiteSpace=wrap;html=1;rotation=-15;" vertex="1" parent="33">
                    <mxGeometry x="-16" y="2" width="70" height="40" as="geometry"/>
                </mxCell>
                <mxCell id="35" value="" style="rounded=0;whiteSpace=wrap;html=1;rotation=-15;" vertex="1" parent="33">
                    <mxGeometry y="60" width="70" height="40" as="geometry"/>
                </mxCell>
                <mxCell id="36" value="" style="rounded=0;whiteSpace=wrap;html=1;rotation=-15;" vertex="1" parent="33">
                    <mxGeometry x="16" y="118" width="70" height="40" as="geometry"/>
                </mxCell>
                <mxCell id="37" value="" style="ellipse;whiteSpace=wrap;html=1;aspect=fixed;rotation=-15;" vertex="1" parent="33">
                    <mxGeometry x="24" y="8" width="20" height="20" as="geometry"/>
                </mxCell>
                <mxCell id="38" value="" style="ellipse;whiteSpace=wrap;html=1;aspect=fixed;rotation=-15;" vertex="1" parent="33">
                    <mxGeometry x="-5" y="16" width="20" height="20" as="geometry"/>
                </mxCell>
                <mxCell id="39" value="" style="ellipse;whiteSpace=wrap;html=1;aspect=fixed;rotation=-15;" vertex="1" parent="33">
                    <mxGeometry x="11" y="74" width="20" height="20" as="geometry"/>
                </mxCell>
                <mxCell id="40" value="" style="ellipse;whiteSpace=wrap;html=1;aspect=fixed;rotation=-15;" vertex="1" parent="33">
                    <mxGeometry x="39" y="66" width="20" height="20" as="geometry"/>
                </mxCell>
                <mxCell id="41" value="" style="ellipse;whiteSpace=wrap;html=1;aspect=fixed;rotation=-15;" vertex="1" parent="33">
                    <mxGeometry x="26" y="132" width="20" height="20" as="geometry"/>
                </mxCell>
                <mxCell id="42" value="" style="ellipse;whiteSpace=wrap;html=1;aspect=fixed;rotation=-15;" vertex="1" parent="33">
                    <mxGeometry x="55" y="124" width="20" height="20" as="geometry"/>
                </mxCell>
                <mxCell id="43" value="" style="group;rotation=-15;" vertex="1" connectable="0" parent="1">
                    <mxGeometry x="650" y="260" width="70" height="160" as="geometry"/>
                </mxCell>
                <mxCell id="44" value="" style="rounded=0;whiteSpace=wrap;html=1;rotation=-15;" vertex="1" parent="43">
                    <mxGeometry x="-16" y="2" width="70" height="40" as="geometry"/>
                </mxCell>
                <mxCell id="45" value="" style="rounded=0;whiteSpace=wrap;html=1;rotation=-15;" vertex="1" parent="43">
                    <mxGeometry y="60" width="70" height="40" as="geometry"/>
                </mxCell>
                <mxCell id="46" value="" style="rounded=0;whiteSpace=wrap;html=1;rotation=-15;" vertex="1" parent="43">
                    <mxGeometry x="16" y="118" width="70" height="40" as="geometry"/>
                </mxCell>
                <mxCell id="47" value="" style="ellipse;whiteSpace=wrap;html=1;aspect=fixed;rotation=-15;" vertex="1" parent="43">
                    <mxGeometry x="24" y="8" width="20" height="20" as="geometry"/>
                </mxCell>
                <mxCell id="48" value="" style="ellipse;whiteSpace=wrap;html=1;aspect=fixed;rotation=-15;" vertex="1" parent="43">
                    <mxGeometry x="-5" y="16" width="20" height="20" as="geometry"/>
                </mxCell>
                <mxCell id="49" value="" style="ellipse;whiteSpace=wrap;html=1;aspect=fixed;rotation=-15;" vertex="1" parent="43">
                    <mxGeometry x="11" y="74" width="20" height="20" as="geometry"/>
                </mxCell>
                <mxCell id="50" value="" style="ellipse;whiteSpace=wrap;html=1;aspect=fixed;rotation=-15;" vertex="1" parent="43">
                    <mxGeometry x="39" y="66" width="20" height="20" as="geometry"/>
                </mxCell>
                <mxCell id="51" value="" style="ellipse;whiteSpace=wrap;html=1;aspect=fixed;rotation=-15;" vertex="1" parent="43">
                    <mxGeometry x="26" y="132" width="20" height="20" as="geometry"/>
                </mxCell>
                <mxCell id="52" value="" style="ellipse;whiteSpace=wrap;html=1;aspect=fixed;rotation=-15;" vertex="1" parent="43">
                    <mxGeometry x="55" y="124" width="20" height="20" as="geometry"/>
                </mxCell>
                <mxCell id="55" value="" style="group;rotation=-15;" vertex="1" connectable="0" parent="1">
                    <mxGeometry x="770" y="230" width="70" height="160" as="geometry"/>
                </mxCell>
                <mxCell id="56" value="" style="rounded=0;whiteSpace=wrap;html=1;rotation=-15;" vertex="1" parent="55">
                    <mxGeometry x="-16" y="2" width="70" height="40" as="geometry"/>
                </mxCell>
                <mxCell id="57" value="" style="rounded=0;whiteSpace=wrap;html=1;rotation=-15;" vertex="1" parent="55">
                    <mxGeometry y="60" width="70" height="40" as="geometry"/>
                </mxCell>
                <mxCell id="58" value="" style="rounded=0;whiteSpace=wrap;html=1;rotation=-15;" vertex="1" parent="55">
                    <mxGeometry x="16" y="118" width="70" height="40" as="geometry"/>
                </mxCell>
                <mxCell id="59" value="" style="ellipse;whiteSpace=wrap;html=1;aspect=fixed;rotation=-15;" vertex="1" parent="55">
                    <mxGeometry x="24" y="8" width="20" height="20" as="geometry"/>
                </mxCell>
                <mxCell id="60" value="" style="ellipse;whiteSpace=wrap;html=1;aspect=fixed;rotation=-15;" vertex="1" parent="55">
                    <mxGeometry x="-5" y="16" width="20" height="20" as="geometry"/>
                </mxCell>
                <mxCell id="61" value="" style="ellipse;whiteSpace=wrap;html=1;aspect=fixed;rotation=-15;" vertex="1" parent="55">
                    <mxGeometry x="11" y="74" width="20" height="20" as="geometry"/>
                </mxCell>
                <mxCell id="62" value="" style="ellipse;whiteSpace=wrap;html=1;aspect=fixed;rotation=-15;" vertex="1" parent="55">
                    <mxGeometry x="39" y="66" width="20" height="20" as="geometry"/>
                </mxCell>
                <mxCell id="63" value="" style="ellipse;whiteSpace=wrap;html=1;aspect=fixed;rotation=-15;" vertex="1" parent="55">
                    <mxGeometry x="26" y="132" width="20" height="20" as="geometry"/>
                </mxCell>
                <mxCell id="64" value="" style="ellipse;whiteSpace=wrap;html=1;aspect=fixed;rotation=-15;" vertex="1" parent="55">
                    <mxGeometry x="55" y="124" width="20" height="20" as="geometry"/>
                </mxCell>
                <mxCell id="65" value="" style="group;rotation=0;" vertex="1" connectable="0" parent="1">
                    <mxGeometry x="970" y="190" width="70" height="160" as="geometry"/>
                </mxCell>
                <mxCell id="66" value="" style="rounded=0;whiteSpace=wrap;html=1;rotation=0;" vertex="1" parent="65">
                    <mxGeometry width="70" height="40" as="geometry"/>
                </mxCell>
                <mxCell id="67" value="" style="rounded=0;whiteSpace=wrap;html=1;rotation=0;" vertex="1" parent="65">
                    <mxGeometry y="60" width="70" height="40" as="geometry"/>
                </mxCell>
                <mxCell id="68" value="" style="rounded=0;whiteSpace=wrap;html=1;rotation=0;" vertex="1" parent="65">
                    <mxGeometry y="120" width="70" height="40" as="geometry"/>
                </mxCell>
                <mxCell id="69" value="" style="ellipse;whiteSpace=wrap;html=1;aspect=fixed;rotation=0;" vertex="1" parent="65">
                    <mxGeometry x="40" y="10" width="20" height="20" as="geometry"/>
                </mxCell>
                <mxCell id="70" value="" style="ellipse;whiteSpace=wrap;html=1;aspect=fixed;rotation=0;" vertex="1" parent="65">
                    <mxGeometry x="10" y="10" width="20" height="20" as="geometry"/>
                </mxCell>
                <mxCell id="71" value="" style="ellipse;whiteSpace=wrap;html=1;aspect=fixed;rotation=0;" vertex="1" parent="65">
                    <mxGeometry x="10" y="70" width="20" height="20" as="geometry"/>
                </mxCell>
                <mxCell id="72" value="" style="ellipse;whiteSpace=wrap;html=1;aspect=fixed;rotation=0;" vertex="1" parent="65">
                    <mxGeometry x="40" y="70" width="20" height="20" as="geometry"/>
                </mxCell>
                <mxCell id="73" value="" style="ellipse;whiteSpace=wrap;html=1;aspect=fixed;rotation=0;" vertex="1" parent="65">
                    <mxGeometry x="10" y="130" width="20" height="20" as="geometry"/>
                </mxCell>
                <mxCell id="74" value="" style="ellipse;whiteSpace=wrap;html=1;aspect=fixed;rotation=0;" vertex="1" parent="65">
                    <mxGeometry x="40" y="130" width="20" height="20" as="geometry"/>
                </mxCell>
                <mxCell id="76" value="" style="group;rotation=15;" vertex="1" connectable="0" parent="1">
                    <mxGeometry x="1270" y="260" width="70" height="160" as="geometry"/>
                </mxCell>
                <mxCell id="77" value="" style="rounded=0;whiteSpace=wrap;html=1;rotation=15;" vertex="1" parent="76">
                    <mxGeometry x="16" y="2" width="70" height="40" as="geometry"/>
                </mxCell>
                <mxCell id="78" value="" style="rounded=0;whiteSpace=wrap;html=1;rotation=15;" vertex="1" parent="76">
                    <mxGeometry y="60" width="70" height="40" as="geometry"/>
                </mxCell>
                <mxCell id="79" value="" style="rounded=0;whiteSpace=wrap;html=1;rotation=15;" vertex="1" parent="76">
                    <mxGeometry x="-16" y="118" width="70" height="40" as="geometry"/>
                </mxCell>
                <mxCell id="80" value="" style="ellipse;whiteSpace=wrap;html=1;aspect=fixed;rotation=15;" vertex="1" parent="76">
                    <mxGeometry x="55" y="16" width="20" height="20" as="geometry"/>
                </mxCell>
                <mxCell id="81" value="" style="ellipse;whiteSpace=wrap;html=1;aspect=fixed;rotation=15;" vertex="1" parent="76">
                    <mxGeometry x="26" y="8" width="20" height="20" as="geometry"/>
                </mxCell>
                <mxCell id="82" value="" style="ellipse;whiteSpace=wrap;html=1;aspect=fixed;rotation=15;" vertex="1" parent="76">
                    <mxGeometry x="11" y="66" width="20" height="20" as="geometry"/>
                </mxCell>
                <mxCell id="83" value="" style="ellipse;whiteSpace=wrap;html=1;aspect=fixed;rotation=15;" vertex="1" parent="76">
                    <mxGeometry x="39" y="74" width="20" height="20" as="geometry"/>
                </mxCell>
                <mxCell id="84" value="" style="ellipse;whiteSpace=wrap;html=1;aspect=fixed;rotation=15;" vertex="1" parent="76">
                    <mxGeometry x="-5" y="124" width="20" height="20" as="geometry"/>
                </mxCell>
                <mxCell id="85" value="" style="ellipse;whiteSpace=wrap;html=1;aspect=fixed;rotation=15;" vertex="1" parent="76">
                    <mxGeometry x="24" y="132" width="20" height="20" as="geometry"/>
                </mxCell>
            </root>
        </mxGraphModel>
    </diagram>
</mxfile>